<?xml version="1.0" encoding="UTF-8"?>
<svg xmlns="http://www.w3.org/2000/svg" xmlns:xlink="http://www.w3.org/1999/xlink">
  <defs>
    <symbol id="icon-email" viewBox="0 0 28 28">
    <title>email</title>
    <path d="M28 11.094v12.406c0 1.375-1.125 2.5-2.5 2.5h-23c-1.375 0-2.5-1.125-2.5-2.5v-12.406c0.469 0.516 1 0.969 1.578 1.359 2.594 1.766 5.219 3.531 7.766 5.391 1.313 0.969 2.938 2.156 4.641 2.156h0.031c1.703 0 3.328-1.188 4.641-2.156 2.547-1.844 5.172-3.625 7.781-5.391 0.562-0.391 1.094-0.844 1.563-1.359zM28 6.5c0 1.75-1.297 3.328-2.672 4.281-2.438 1.687-4.891 3.375-7.313 5.078-1.016 0.703-2.734 2.141-4 2.141h-0.031c-1.266 0-2.984-1.437-4-2.141-2.422-1.703-4.875-3.391-7.297-5.078-1.109-0.75-2.688-2.516-2.688-3.938 0-1.531 0.828-2.844 2.5-2.844h23c1.359 0 2.5 1.125 2.5 2.5z"></path>
    </symbol>
    <symbol id="icon-gitlab" viewBox="0 0 28 28">
    <title>gitlab</title>
    <path d="M1.625 11.031l12.375 15.859-13.563-9.844c-0.375-0.281-0.531-0.766-0.391-1.203l1.578-4.813zM8.844 11.031h10.313l-5.156 15.859zM5.75 1.469l3.094 9.562h-7.219l3.094-9.562c0.172-0.484 0.859-0.484 1.031 0zM26.375 11.031l1.578 4.813c0.141 0.438-0.016 0.922-0.391 1.203l-13.563 9.844 12.375-15.859zM26.375 11.031h-7.219l3.094-9.562c0.172-0.484 0.859-0.484 1.031 0z"></path>
    </symbol>
    <symbol id="icon-github" viewBox="0 0 28 28">
    <title>github</title>
    <path d="M14 0.346c-7.731 0-14 6.268-14 14 0 6.186 4.011 11.433 9.574 13.285 0.7 0.13 0.957-0.304 0.957-0.674 0-0.334-0.013-1.437-0.019-2.607-3.895 0.847-4.717-1.652-4.717-1.652-0.637-1.618-1.554-2.048-1.554-2.048-1.27-0.869 0.096-0.851 0.096-0.851 1.405 0.099 2.146 1.443 2.146 1.443 1.249 2.14 3.275 1.521 4.074 1.164 0.125-0.905 0.488-1.522 0.889-1.872-3.11-0.354-6.379-1.554-6.379-6.919 0-1.528 0.547-2.777 1.443-3.758-0.145-0.353-0.625-1.777 0.135-3.705 0 0 1.176-0.376 3.851 1.435 1.117-0.31 2.314-0.466 3.504-0.471 1.19 0.005 2.388 0.161 3.507 0.471 2.672-1.811 3.846-1.435 3.846-1.435 0.762 1.929 0.283 3.352 0.138 3.705 0.897 0.98 1.441 2.229 1.441 3.758 0 5.377-3.275 6.561-6.393 6.908 0.502 0.434 0.949 1.286 0.949 2.593 0 1.873-0.016 3.381-0.016 3.842 0 0.373 0.252 0.809 0.962 0.672 5.56-1.853 9.566-7.099 9.566-13.283 0-7.732-6.268-14-14-14z"></path>
    </symbol>
  </defs>
</svg>

